<?xml version="1.0" encoding="UTF-8" standalone="no"?>
<!DOCTYPE svg PUBLIC "-//W3C//DTD SVG 1.1//EN"
 "http://www.w3.org/Graphics/SVG/1.1/DTD/svg11.dtd">
<!-- Generated by graphviz version 5.0.0 (20220707.1540)
 -->
<!-- Title: dependencies Pages: 1 -->
<svg width="561pt" height="174pt"
 viewBox="0.00 0.00 561.00 173.80" xmlns="http://www.w3.org/2000/svg" xmlns:xlink="http://www.w3.org/1999/xlink">
<g id="graph0" class="graph" transform="scale(1 1) rotate(0) translate(4 169.8)">
<title>dependencies</title>
<polygon fill="white" stroke="transparent" points="-4,4 -4,-169.8 557,-169.8 557,4 -4,4"/>
<text text-anchor="middle" x="276.5" y="-8.2" font-family="sans-serif" font-size="14.00">dependencies</text>
<g id="clust1" class="cluster">
<title>cluster_PagesModule</title>
<polygon fill="none" stroke="black" stroke-dasharray="1,5" points="8,-32.8 8,-157.8 545,-157.8 545,-32.8 8,-32.8"/>
</g>
<g id="clust2" class="cluster">
<title>cluster_PagesModule_declarations</title>
<polygon fill="none" stroke="black" points="16,-40.8 16,-92.8 537,-92.8 537,-40.8 16,-40.8"/>
</g>
<!-- AdminSubscribersComponent -->
<g id="node1" class="node">
<title>AdminSubscribersComponent</title>
<polygon fill="#ffffb3" stroke="black" points="528.55,-84.8 343.45,-84.8 343.45,-48.8 528.55,-48.8 528.55,-84.8"/>
<text text-anchor="middle" x="436" y="-62.6" font-family="Times,serif" font-size="14.00">AdminSubscribersComponent</text>
</g>
<!-- PagesModule -->
<g id="node4" class="node">
<title>PagesModule</title>
<polygon fill="#8dd3c7" stroke="black" points="287.21,-149.8 284.21,-153.8 263.21,-153.8 260.21,-149.8 194.79,-149.8 194.79,-113.8 287.21,-113.8 287.21,-149.8"/>
<text text-anchor="middle" x="241" y="-127.6" font-family="Times,serif" font-size="14.00">PagesModule</text>
</g>
<!-- AdminSubscribersComponent&#45;&gt;PagesModule -->
<g id="edge1" class="edge">
<title>AdminSubscribersComponent&#45;&gt;PagesModule</title>
<path fill="none" stroke="black" d="M436,-84.91C436,-104.14 436,-131.8 436,-131.8 436,-131.8 297.21,-131.8 297.21,-131.8"/>
<polygon fill="black" stroke="black" points="297.21,-128.3 287.21,-131.8 297.21,-135.3 297.21,-128.3"/>
</g>
<!-- ListSubscribersComponent -->
<g id="node2" class="node">
<title>ListSubscribersComponent</title>
<polygon fill="#ffffb3" stroke="black" points="325.44,-84.8 156.56,-84.8 156.56,-48.8 325.44,-48.8 325.44,-84.8"/>
<text text-anchor="middle" x="241" y="-62.6" font-family="Times,serif" font-size="14.00">ListSubscribersComponent</text>
</g>
<!-- ListSubscribersComponent&#45;&gt;PagesModule -->
<g id="edge2" class="edge">
<title>ListSubscribersComponent&#45;&gt;PagesModule</title>
<path fill="none" stroke="black" d="M241,-84.91C241,-84.91 241,-103.79 241,-103.79"/>
<polygon fill="black" stroke="black" points="237.5,-103.79 241,-113.79 244.5,-103.79 237.5,-103.79"/>
</g>
<!-- LoginComponent -->
<g id="node3" class="node">
<title>LoginComponent</title>
<polygon fill="#ffffb3" stroke="black" points="138.27,-84.8 23.73,-84.8 23.73,-48.8 138.27,-48.8 138.27,-84.8"/>
<text text-anchor="middle" x="81" y="-62.6" font-family="Times,serif" font-size="14.00">LoginComponent</text>
</g>
<!-- LoginComponent&#45;&gt;PagesModule -->
<g id="edge3" class="edge">
<title>LoginComponent&#45;&gt;PagesModule</title>
<path fill="none" stroke="black" d="M81,-84.91C81,-104.14 81,-131.8 81,-131.8 81,-131.8 184.72,-131.8 184.72,-131.8"/>
<polygon fill="black" stroke="black" points="184.72,-135.3 194.72,-131.8 184.72,-128.3 184.72,-135.3"/>
</g>
</g>
</svg>
