<?xml version="1.0" encoding="UTF-8" standalone="no"?>
<!DOCTYPE svg PUBLIC "-//W3C//DTD SVG 1.1//EN"
 "http://www.w3.org/Graphics/SVG/1.1/DTD/svg11.dtd">
<!-- Generated by graphviz version 5.0.0 (20220707.1540)
 -->
<!-- Title: dependencies Pages: 1 -->
<svg width="761pt" height="326pt"
 viewBox="0.00 0.00 761.00 325.80" xmlns="http://www.w3.org/2000/svg" xmlns:xlink="http://www.w3.org/1999/xlink">
<g id="graph0" class="graph" transform="scale(1 1) rotate(0) translate(4 321.8)">
<title>dependencies</title>
<polygon fill="white" stroke="transparent" points="-4,4 -4,-321.8 757,-321.8 757,4 -4,4"/>
<text text-anchor="middle" x="376.5" y="-8.2" font-family="sans-serif" font-size="14.00">dependencies</text>
<g id="clust1" class="cluster">
<title>cluster_AppModule</title>
<polygon fill="none" stroke="black" stroke-dasharray="1,5" points="179,-108.8 179,-309.8 579,-309.8 579,-108.8 179,-108.8"/>
</g>
<g id="clust2" class="cluster">
<title>cluster_AppModule_declarations</title>
<polygon fill="none" stroke="black" points="449,-116.8 449,-168.8 571,-168.8 571,-116.8 449,-116.8"/>
</g>
<g id="clust4" class="cluster">
<title>cluster_AppModule_imports</title>
<polygon fill="none" stroke="black" points="187,-116.8 187,-168.8 441,-168.8 441,-116.8 187,-116.8"/>
</g>
<g id="clust6" class="cluster">
<title>cluster_AppModule_bootstrap</title>
<polygon fill="none" stroke="black" points="307,-249.8 307,-301.8 431,-301.8 431,-249.8 307,-249.8"/>
</g>
<g id="clust14" class="cluster">
<title>cluster_ComponentsModule</title>
<polygon fill="none" stroke="black" stroke-dasharray="1,5" points="587,-32.8 587,-241.8 745,-241.8 745,-32.8 587,-32.8"/>
</g>
<g id="clust15" class="cluster">
<title>cluster_ComponentsModule_declarations</title>
<polygon fill="none" stroke="black" points="597,-40.8 597,-92.8 735,-92.8 735,-40.8 597,-40.8"/>
</g>
<g id="clust18" class="cluster">
<title>cluster_ComponentsModule_exports</title>
<polygon fill="none" stroke="black" points="595,-181.8 595,-233.8 737,-233.8 737,-181.8 595,-181.8"/>
</g>
<g id="clust21" class="cluster">
<title>cluster_PagesModule</title>
<polygon fill="none" stroke="black" stroke-dasharray="1,5" points="8,-32.8 8,-100.8 545,-100.8 545,-32.8 8,-32.8"/>
</g>
<g id="clust22" class="cluster">
<title>cluster_PagesModule_declarations</title>
<polygon fill="none" stroke="black" points="16,-40.8 16,-92.8 537,-92.8 537,-40.8 16,-40.8"/>
</g>
<!-- AppComponent -->
<g id="node1" class="node">
<title>AppComponent</title>
<polygon fill="#ffffb3" stroke="black" points="562.94,-160.8 457.06,-160.8 457.06,-124.8 562.94,-124.8 562.94,-160.8"/>
<text text-anchor="middle" x="510" y="-138.6" font-family="Times,serif" font-size="14.00">AppComponent</text>
</g>
<!-- AppModule -->
<g id="node2" class="node">
<title>AppModule</title>
<polygon fill="#8dd3c7" stroke="black" points="410.66,-225.8 407.66,-229.8 386.66,-229.8 383.66,-225.8 327.34,-225.8 327.34,-189.8 410.66,-189.8 410.66,-225.8"/>
<text text-anchor="middle" x="369" y="-203.6" font-family="Times,serif" font-size="14.00">AppModule</text>
</g>
<!-- AppComponent&#45;&gt;AppModule -->
<g id="edge1" class="edge">
<title>AppComponent&#45;&gt;AppModule</title>
<path fill="none" stroke="black" d="M510,-160.91C510,-180.14 510,-207.8 510,-207.8 510,-207.8 420.92,-207.8 420.92,-207.8"/>
<polygon fill="black" stroke="black" points="420.92,-204.3 410.92,-207.8 420.92,-211.3 420.92,-204.3"/>
</g>
<!-- AppComponent  -->
<g id="node5" class="node">
<title>AppComponent </title>
<polygon fill="#80b1d3" stroke="black" points="423.44,-293.8 314.56,-293.8 314.56,-257.8 423.44,-257.8 423.44,-293.8"/>
<text text-anchor="middle" x="369" y="-271.6" font-family="Times,serif" font-size="14.00">AppComponent </text>
</g>
<!-- AppModule&#45;&gt;AppComponent  -->
<g id="edge4" class="edge">
<title>AppModule&#45;&gt;AppComponent </title>
<path fill="none" stroke="black" stroke-dasharray="1,5" d="M369,-226.02C369,-226.02 369,-247.53 369,-247.53"/>
<polygon fill="black" stroke="black" points="365.5,-247.53 369,-257.53 372.5,-247.53 365.5,-247.53"/>
</g>
<!-- AppRoutingModule -->
<g id="node3" class="node">
<title>AppRoutingModule</title>
<polygon fill="#8dd3c7" stroke="black" points="433.28,-160.8 430.28,-164.8 409.28,-164.8 406.28,-160.8 304.72,-160.8 304.72,-124.8 433.28,-124.8 433.28,-160.8"/>
<text text-anchor="middle" x="369" y="-138.6" font-family="Times,serif" font-size="14.00">AppRoutingModule</text>
</g>
<!-- AppRoutingModule&#45;&gt;AppModule -->
<g id="edge2" class="edge">
<title>AppRoutingModule&#45;&gt;AppModule</title>
<path fill="none" stroke="black" d="M369,-160.91C369,-160.91 369,-179.79 369,-179.79"/>
<polygon fill="black" stroke="black" points="365.5,-179.79 369,-189.79 372.5,-179.79 365.5,-179.79"/>
</g>
<!-- PagesModule -->
<g id="node4" class="node">
<title>PagesModule</title>
<polygon fill="#8dd3c7" stroke="black" points="287.21,-160.8 284.21,-164.8 263.21,-164.8 260.21,-160.8 194.79,-160.8 194.79,-124.8 287.21,-124.8 287.21,-160.8"/>
<text text-anchor="middle" x="241" y="-138.6" font-family="Times,serif" font-size="14.00">PagesModule</text>
</g>
<!-- PagesModule&#45;&gt;AppModule -->
<g id="edge3" class="edge">
<title>PagesModule&#45;&gt;AppModule</title>
<path fill="none" stroke="black" d="M241,-160.91C241,-180.14 241,-207.8 241,-207.8 241,-207.8 317.09,-207.8 317.09,-207.8"/>
<polygon fill="black" stroke="black" points="317.09,-211.3 327.09,-207.8 317.09,-204.3 317.09,-211.3"/>
</g>
<!-- HeaderComponent -->
<g id="node6" class="node">
<title>HeaderComponent</title>
<polygon fill="#ffffb3" stroke="black" points="726.75,-84.8 605.25,-84.8 605.25,-48.8 726.75,-48.8 726.75,-84.8"/>
<text text-anchor="middle" x="666" y="-62.6" font-family="Times,serif" font-size="14.00">HeaderComponent</text>
</g>
<!-- ComponentsModule -->
<g id="node7" class="node">
<title>ComponentsModule</title>
<polygon fill="#8dd3c7" stroke="black" points="731.33,-160.8 728.33,-164.8 707.33,-164.8 704.33,-160.8 600.67,-160.8 600.67,-124.8 731.33,-124.8 731.33,-160.8"/>
<text text-anchor="middle" x="666" y="-138.6" font-family="Times,serif" font-size="14.00">ComponentsModule</text>
</g>
<!-- HeaderComponent&#45;&gt;ComponentsModule -->
<g id="edge5" class="edge">
<title>HeaderComponent&#45;&gt;ComponentsModule</title>
<path fill="none" stroke="black" d="M666,-84.81C666,-84.81 666,-114.65 666,-114.65"/>
<polygon fill="black" stroke="black" points="662.5,-114.65 666,-124.65 669.5,-114.65 662.5,-114.65"/>
</g>
<!-- HeaderComponent  -->
<g id="node8" class="node">
<title>HeaderComponent </title>
<polygon fill="#fb8072" stroke="black" points="728.75,-225.8 603.25,-225.8 603.25,-189.8 728.75,-189.8 728.75,-225.8"/>
<text text-anchor="middle" x="666" y="-203.6" font-family="Times,serif" font-size="14.00">HeaderComponent </text>
</g>
<!-- ComponentsModule&#45;&gt;HeaderComponent  -->
<g id="edge6" class="edge">
<title>ComponentsModule&#45;&gt;HeaderComponent </title>
<path fill="none" stroke="black" stroke-dasharray="5,2" d="M666,-160.91C666,-160.91 666,-179.79 666,-179.79"/>
<polygon fill="black" stroke="black" points="662.5,-179.79 666,-189.79 669.5,-179.79 662.5,-179.79"/>
</g>
<!-- AdminSubscribersComponent -->
<g id="node9" class="node">
<title>AdminSubscribersComponent</title>
<polygon fill="#ffffb3" stroke="black" points="528.55,-84.8 343.45,-84.8 343.45,-48.8 528.55,-48.8 528.55,-84.8"/>
<text text-anchor="middle" x="436" y="-62.6" font-family="Times,serif" font-size="14.00">AdminSubscribersComponent</text>
</g>
<!-- AdminSubscribersComponent&#45;&gt;PagesModule -->
<g id="edge7" class="edge">
<title>AdminSubscribersComponent&#45;&gt;PagesModule</title>
<path fill="none" stroke="black" d="M388.31,-84.91C388.31,-94.7 388.31,-104.8 388.31,-104.8 388.31,-104.8 256.37,-104.8 256.37,-104.8 256.37,-104.8 256.37,-114.69 256.37,-114.69"/>
<polygon fill="black" stroke="black" points="252.87,-114.69 256.37,-124.69 259.87,-114.69 252.87,-114.69"/>
</g>
<!-- ListSubscribersComponent -->
<g id="node10" class="node">
<title>ListSubscribersComponent</title>
<polygon fill="#ffffb3" stroke="black" points="325.44,-84.8 156.56,-84.8 156.56,-48.8 325.44,-48.8 325.44,-84.8"/>
<text text-anchor="middle" x="241" y="-62.6" font-family="Times,serif" font-size="14.00">ListSubscribersComponent</text>
</g>
<!-- ListSubscribersComponent&#45;&gt;PagesModule -->
<g id="edge8" class="edge">
<title>ListSubscribersComponent&#45;&gt;PagesModule</title>
<path fill="none" stroke="black" d="M225.63,-84.81C225.63,-84.81 225.63,-114.65 225.63,-114.65"/>
<polygon fill="black" stroke="black" points="222.13,-114.65 225.63,-124.65 229.13,-114.65 222.13,-114.65"/>
</g>
<!-- LoginComponent -->
<g id="node11" class="node">
<title>LoginComponent</title>
<polygon fill="#ffffb3" stroke="black" points="138.27,-84.8 23.73,-84.8 23.73,-48.8 138.27,-48.8 138.27,-84.8"/>
<text text-anchor="middle" x="81" y="-62.6" font-family="Times,serif" font-size="14.00">LoginComponent</text>
</g>
<!-- LoginComponent&#45;&gt;PagesModule -->
<g id="edge9" class="edge">
<title>LoginComponent&#45;&gt;PagesModule</title>
<path fill="none" stroke="black" d="M81,-84.81C81,-107.29 81,-142.8 81,-142.8 81,-142.8 184.72,-142.8 184.72,-142.8"/>
<polygon fill="black" stroke="black" points="184.72,-146.3 194.72,-142.8 184.72,-139.3 184.72,-146.3"/>
</g>
</g>
</svg>
